<svg width="24" height="24" viewBox="0 0 24 24" fill="none" xmlns="http://www.w3.org/2000/svg">
<path d="M22.2075 5.02919C21.3112 3.53543 19.7178 2.53957 17.9253 2.53957H5.97511C4.18256 2.53957 2.58923 3.53543 1.69294 5.02919C0.597516 7.02091 0 9.2118 0 11.5023C0 16.9794 2.19089 21.4608 4.97925 21.4608C6.47302 21.4608 7.66805 20.0665 8.5643 17.1786C8.66386 16.7802 9.0622 16.4815 9.56016 16.4815H14.4398C14.8382 16.4815 15.2365 16.7802 15.4357 17.1786C16.332 20.0665 17.527 21.4608 19.0208 21.4608C21.8091 21.4608 24 16.9794 24 11.5023C23.9004 9.2118 23.3029 7.02091 22.2075 5.02919ZM18.9211 19.469C18.6224 19.469 17.9253 18.6723 17.2282 16.5811C16.8299 15.2865 15.6348 14.4898 14.3402 14.4898H9.56016C8.26556 14.4898 7.07053 15.386 6.67219 16.5811C5.97511 18.6723 5.27798 19.469 4.97925 19.469C3.98339 19.469 1.99172 16.3819 1.99172 11.5023C1.99172 9.61014 2.48962 7.71803 3.38592 6.0251C3.98344 5.12885 4.9793 4.53133 5.97516 4.53133H17.9254C18.9212 4.53133 19.9171 5.12885 20.5146 6.0251C21.4109 7.71803 21.9088 9.61014 21.9088 11.5023C21.9087 16.3819 19.917 19.469 18.9211 19.469Z" fill="#374957"/>
<path d="M9.00005 9.00001H8.00006V8.00003C8.00006 7.40003 7.60008 7.00005 7.00008 7.00005C6.40008 7.00005 6.00009 7.40003 6.00009 8.00003V9.00001H5.00011C4.40011 9.00001 4.00012 9.39999 4.00012 9.99999C4.00012 10.6 4.40011 11 5.00011 11H6.00005V12C6.00005 12.6 6.40003 13 7.00003 13C7.60003 13 8.00002 12.6 8.00002 12V11H9.00005C9.60005 11 10 10.6 10 10C10 9.39999 9.60005 9.00001 9.00005 9.00001Z" fill="#374957"/>
<path d="M18.5 9.99997C19.3284 9.99997 20 9.3284 20 8.49997C20 7.67154 19.3284 6.99997 18.5 6.99997C17.6716 6.99997 17 7.67154 17 8.49997C17 9.3284 17.6716 9.99997 18.5 9.99997Z" fill="#374957"/>
<path d="M15.5 13C16.3284 13 17 12.3284 17 11.5C17 10.6715 16.3284 9.99997 15.5 9.99997C14.6716 9.99997 14 10.6715 14 11.5C14 12.3284 14.6716 13 15.5 13Z" fill="#374957"/>
</svg>
