<svg width="24" height="24" viewBox="0 0 24 24" fill="none" xmlns="http://www.w3.org/2000/svg">
<path d="M15.3998 9.88L10.8098 5.29C10.6225 5.10375 10.369 4.99921 10.1048 4.99921C9.84065 4.99921 9.5872 5.10375 9.39983 5.29C9.3061 5.38296 9.23171 5.49356 9.18094 5.61542C9.13017 5.73728 9.10403 5.86799 9.10403 6C9.10403 6.13201 9.13017 6.26272 9.18094 6.38458C9.23171 6.50644 9.3061 6.61704 9.39983 6.71L13.9998 11.29C14.0936 11.383 14.168 11.4936 14.2187 11.6154C14.2695 11.7373 14.2956 11.868 14.2956 12C14.2956 12.132 14.2695 12.2627 14.2187 12.3846C14.168 12.5064 14.0936 12.617 13.9998 12.71L9.39983 17.29C9.21153 17.477 9.10521 17.7311 9.10428 17.9965C9.10334 18.2618 9.20786 18.5167 9.39483 18.705C9.58181 18.8933 9.83593 18.9996 10.1013 19.0006C10.3667 19.0015 10.6215 18.897 10.8098 18.71L15.3998 14.12C15.9616 13.5575 16.2772 12.795 16.2772 12C16.2772 11.205 15.9616 10.4425 15.3998 9.88Z" fill="#374957"/>
</svg>
