<svg width="24" height="24" viewBox="0 0 24 24" fill="none" xmlns="http://www.w3.org/2000/svg">
<g clip-path="url(#clip0_4277_41952)">
<path d="M16.8889 0H16.73C16.183 0.00425181 15.6532 0.157013 15.2238 0.434299C14.7945 0.711585 14.4898 1.09769 14.3577 1.532C14.2162 1.95484 13.9088 2.32792 13.4828 2.59385C13.0568 2.85979 12.5358 3.00383 12 3.00383C11.4642 3.00383 10.9432 2.85979 10.5172 2.59385C10.0912 2.32792 9.78384 1.95484 9.64233 1.532C9.51021 1.09769 9.20553 0.711585 8.77615 0.434299C8.34677 0.157013 7.81699 0.00425181 7.27 0L7.11111 0C5.49094 0.00158786 3.93768 0.528882 2.79205 1.46622C1.64641 2.40356 1.00194 3.67441 1 5V21C1 21.7956 1.38631 22.5587 2.07394 23.1213C2.76158 23.6839 3.69421 24 4.66667 24H7.27C7.81699 23.9957 8.34677 23.843 8.77615 23.5657C9.20553 23.2884 9.51021 22.9023 9.64233 22.468C9.78384 22.0452 10.0912 21.6721 10.5172 21.4061C10.9432 21.1402 11.4642 20.9962 12 20.9962C12.5358 20.9962 13.0568 21.1402 13.4828 21.4061C13.9088 21.6721 14.2162 22.0452 14.3577 22.468C14.4898 22.9023 14.7945 23.2884 15.2238 23.5657C15.6532 23.843 16.183 23.9957 16.73 24H19.3333C20.3058 24 21.2384 23.6839 21.9261 23.1213C22.6137 22.5587 23 21.7956 23 21V5C22.9981 3.67441 22.3536 2.40356 21.208 1.46622C20.0623 0.528882 18.5091 0.00158786 16.8889 0V0ZM19.3333 22L16.7141 21.937C16.427 21.0884 15.8058 20.341 14.9467 19.8108C14.0876 19.2805 13.0386 18.997 11.9625 19.0042C10.8864 19.0113 9.84325 19.3088 8.99482 19.8505C8.1464 20.3921 7.54012 21.1477 7.27 22H4.66667C4.34251 22 4.03164 21.8946 3.80243 21.7071C3.57321 21.5196 3.44444 21.2652 3.44444 21V17H5.88889C6.21304 17 6.52392 16.8946 6.75313 16.7071C6.98234 16.5196 7.11111 16.2652 7.11111 16C7.11111 15.7348 6.98234 15.4804 6.75313 15.2929C6.52392 15.1054 6.21304 15 5.88889 15H3.44444V5C3.44444 4.20435 3.83075 3.44129 4.51839 2.87868C5.20602 2.31607 6.13865 2 7.11111 2L7.28589 2.063C7.57216 2.90643 8.18788 3.65004 9.03907 4.18035C9.89025 4.71066 10.9301 4.99852 12 5C13.0843 4.99245 14.1359 4.6953 14.9948 4.15376C15.8537 3.61222 16.4729 2.85595 16.7581 2H16.8889C17.8613 2 18.794 2.31607 19.4816 2.87868C20.1692 3.44129 20.5556 4.20435 20.5556 5V15H18.1111C17.787 15 17.4761 15.1054 17.2469 15.2929C17.0177 15.4804 16.8889 15.7348 16.8889 16C16.8889 16.2652 17.0177 16.5196 17.2469 16.7071C17.4761 16.8946 17.787 17 18.1111 17H20.5556V21C20.5556 21.2652 20.4268 21.5196 20.1976 21.7071C19.9684 21.8946 19.6575 22 19.3333 22Z" fill="#374957"/>
<path d="M13.0001 15H11.0001C10.7349 15 10.4806 15.1054 10.293 15.2929C10.1055 15.4804 10.0001 15.7348 10.0001 16C10.0001 16.2652 10.1055 16.5196 10.293 16.7071C10.4806 16.8947 10.7349 17 11.0001 17H13.0001C13.2653 17 13.5197 16.8947 13.7072 16.7071C13.8948 16.5196 14.0001 16.2652 14.0001 16C14.0001 15.7348 13.8948 15.4804 13.7072 15.2929C13.5197 15.1054 13.2653 15 13.0001 15Z" fill="#374957"/>
</g>
<defs>
<clipPath id="clip0_4277_41952">
<rect width="24" height="24" fill="white"/>
</clipPath>
</defs>
</svg>
